<svg id="visual" viewBox="0 0 960 540" width="960" height="540" xmlns="http://www.w3.org/2000/svg" xmlns:xlink="http://www.w3.org/1999/xlink" version="1.1"><rect x="0" y="0" width="960" height="540" fill="#4FACF7"></rect><path d="M0 377L22.8 370.2C45.7 363.3 91.3 349.7 137 343C182.7 336.3 228.3 336.7 274 344.8C319.7 353 365.3 369 411.2 378.3C457 387.7 503 390.3 548.8 381.7C594.7 373 640.3 353 686 348.3C731.7 343.7 777.3 354.3 823 363.2C868.7 372 914.3 379 937.2 382.5L960 386L960 541L937.2 541C914.3 541 868.7 541 823 541C777.3 541 731.7 541 686 541C640.3 541 594.7 541 548.8 541C503 541 457 541 411.2 541C365.3 541 319.7 541 274 541C228.3 541 182.7 541 137 541C91.3 541 45.7 541 22.8 541L0 541Z" fill="#fcaf3c"></path><path d="M0 371L22.8 374.2C45.7 377.3 91.3 383.7 137 387.8C182.7 392 228.3 394 274 395.2C319.7 396.3 365.3 396.7 411.2 393.2C457 389.7 503 382.3 548.8 383C594.7 383.7 640.3 392.3 686 390.7C731.7 389 777.3 377 823 375C868.7 373 914.3 381 937.2 385L960 389L960 541L937.2 541C914.3 541 868.7 541 823 541C777.3 541 731.7 541 686 541C640.3 541 594.7 541 548.8 541C503 541 457 541 411.2 541C365.3 541 319.7 541 274 541C228.3 541 182.7 541 137 541C91.3 541 45.7 541 22.8 541L0 541Z" fill="#fba230"></path><path d="M0 438L22.8 438.5C45.7 439 91.3 440 137 436.7C182.7 433.3 228.3 425.7 274 427.2C319.7 428.7 365.3 439.3 411.2 438.3C457 437.3 503 424.7 548.8 416C594.7 407.3 640.3 402.7 686 400.2C731.7 397.7 777.3 397.3 823 401.8C868.7 406.3 914.3 415.7 937.2 420.3L960 425L960 541L937.2 541C914.3 541 868.7 541 823 541C777.3 541 731.7 541 686 541C640.3 541 594.7 541 548.8 541C503 541 457 541 411.2 541C365.3 541 319.7 541 274 541C228.3 541 182.7 541 137 541C91.3 541 45.7 541 22.8 541L0 541Z" fill="#fa9424"></path><path d="M0 443L22.8 443.3C45.7 443.7 91.3 444.3 137 445.3C182.7 446.3 228.3 447.7 274 448.7C319.7 449.7 365.3 450.3 411.2 450.5C457 450.7 503 450.3 548.8 450.8C594.7 451.3 640.3 452.7 686 452.2C731.7 451.7 777.3 449.3 823 448.2C868.7 447 914.3 447 937.2 447L960 447L960 541L937.2 541C914.3 541 868.7 541 823 541C777.3 541 731.7 541 686 541C640.3 541 594.7 541 548.8 541C503 541 457 541 411.2 541C365.3 541 319.7 541 274 541C228.3 541 182.7 541 137 541C91.3 541 45.7 541 22.8 541L0 541Z" fill="#f98619"></path><path d="M0 475L22.8 479.2C45.7 483.3 91.3 491.7 137 491.3C182.7 491 228.3 482 274 484C319.7 486 365.3 499 411.2 498.8C457 498.7 503 485.3 548.8 479.8C594.7 474.3 640.3 476.7 686 478.2C731.7 479.7 777.3 480.3 823 483.8C868.7 487.3 914.3 493.7 937.2 496.8L960 500L960 541L937.2 541C914.3 541 868.7 541 823 541C777.3 541 731.7 541 686 541C640.3 541 594.7 541 548.8 541C503 541 457 541 411.2 541C365.3 541 319.7 541 274 541C228.3 541 182.7 541 137 541C91.3 541 45.7 541 22.8 541L0 541Z" fill="#f7770f"></path></svg>