<?xml version="1.0" encoding="UTF-8" standalone="no"?><!DOCTYPE svg PUBLIC "-//W3C//DTD SVG 1.1//EN" "http://www.w3.org/Graphics/SVG/1.1/DTD/svg11.dtd"><svg xmlns="http://www.w3.org/2000/svg" version="1.1" viewBox="0.00 0.00 96.00 96.00"><g stroke-width="2.00" fill="none" stroke-linecap="butt"><path stroke="#aeaeae" vector-effect="non-scaling-stroke" d=" M 84.72 57.58 Q 75.84 64.85 70.58 59.80"/><path stroke="#8a8a8a" vector-effect="non-scaling-stroke" d=" M 70.58 59.80 Q 72.45 58.26 71.70 56.75 C 70.77 54.85 68.34 55.27 67.99 52.02 A 1.00 0.99 62.6 0 1 68.23 51.25 C 71.89 47.05 74.22 54.12 78.23 51.20 Q 79.83 50.03 79.91 47.91 C 80.03 44.52 76.87 43.57 74.40 42.23 Q 73.93 41.98 73.67 41.52 Q 70.51 36.04 64.76 33.30 A 1.18 1.16 -85.1 0 1 64.13 32.54 C 62.46 25.99 56.88 20.11 50.76 27.10 A 0.79 0.74 -22.0 0 0 50.57 27.51 L 49.63 35.67 A 1.31 1.26 73.0 0 1 49.24 36.44 Q 45.77 39.65 42.70 36.24 A 2.79 2.78 -51.2 0 1 42.35 32.98 C 43.58 30.86 45.72 28.77 45.87 26.29 C 46.13 21.94 42.62 20.12 38.68 20.04 Q 29.05 19.83 23.20 27.71 A 0.73 0.72 69.4 0 1 21.91 27.12 L 23.61 19.00"/><path stroke="#999999" vector-effect="non-scaling-stroke" d=" M 70.58 59.80 Q 64.76 60.91 63.94 56.03 Q 63.85 55.52 63.36 55.35 Q 56.05 52.77 55.89 45.20 C 55.85 43.35 55.00 41.71 53.00 41.97 C 50.22 42.33 48.67 45.39 46.93 47.41 Q 46.59 47.81 46.08 47.88 C 40.36 48.65 41.98 52.61 43.35 56.74 C 48.52 72.28 24.41 74.71 24.03 61.68 A 1.75 1.75 0.0 0 0 22.29 59.98 Q 19.88 59.98 17.56 58.44 Q 13.11 55.49 10.18 46.89"/><path stroke="#8a8a8a" vector-effect="non-scaling-stroke" d=" M 78.4139 37.6752 A 5.24 3.31 62.2 0 0 78.8980 31.4963 A 5.24 3.31 62.2 0 0 73.5261 28.4048 A 5.24 3.31 62.2 0 0 73.0420 34.5837 A 5.24 3.31 62.2 0 0 78.4139 37.6752"/><path stroke="#7c7c7c" vector-effect="non-scaling-stroke" d=" M 21.92 37.99 A 1.92 1.92 0.0 0 0 20.00 36.07 A 1.92 1.92 0.0 0 0 18.08 37.99 A 1.92 1.92 0.0 0 0 20.00 39.91 A 1.92 1.92 0.0 0 0 21.92 37.99"/><path stroke="#7c7c7c" vector-effect="non-scaling-stroke" d=" M 37.86 41.98 A 3.87 3.87 0.0 0 0 33.99 38.11 A 3.87 3.87 0.0 0 0 30.12 41.98 A 3.87 3.87 0.0 0 0 33.99 45.85 A 3.87 3.87 0.0 0 0 37.86 41.98"/><path stroke="#7c7c7c" vector-effect="non-scaling-stroke" d=" M 27.92 47.01 A 2.89 2.89 0.0 0 0 25.03 44.12 A 2.89 2.89 0.0 0 0 22.14 47.01 A 2.89 2.89 0.0 0 0 25.03 49.90 A 2.89 2.89 0.0 0 0 27.92 47.01"/></g><path fill="#9e9e9e" d=" M 84.72 57.58 Q 75.84 64.85 70.58 59.80 Q 72.45 58.26 71.70 56.75 C 70.77 54.85 68.34 55.27 67.99 52.02 A 1.00 0.99 62.6 0 1 68.23 51.25 C 71.89 47.05 74.22 54.12 78.23 51.20 Q 79.83 50.03 79.91 47.91 C 80.03 44.52 76.87 43.57 74.40 42.23 Q 73.93 41.98 73.67 41.52 Q 70.51 36.04 64.76 33.30 A 1.18 1.16 -85.1 0 1 64.13 32.54 C 62.46 25.99 56.88 20.11 50.76 27.10 A 0.79 0.74 -22.0 0 0 50.57 27.51 L 49.63 35.67 A 1.31 1.26 73.0 0 1 49.24 36.44 Q 45.77 39.65 42.70 36.24 A 2.79 2.78 -51.2 0 1 42.35 32.98 C 43.58 30.86 45.72 28.77 45.87 26.29 C 46.13 21.94 42.62 20.12 38.68 20.04 Q 29.05 19.83 23.20 27.71 A 0.73 0.72 69.4 0 1 21.91 27.12 L 23.61 19.00 C 42.15 3.21 69.88 9.13 81.35 30.07 Q 88.24 42.66 84.72 57.58 Z M 78.4139 37.6752 A 5.24 3.31 62.2 0 0 78.8980 31.4963 A 5.24 3.31 62.2 0 0 73.5261 28.4048 A 5.24 3.31 62.2 0 0 73.0420 34.5837 A 5.24 3.31 62.2 0 0 78.4139 37.6752 Z"/><path fill="#757575" d=" M 23.61 19.00 L 21.91 27.12 A 0.73 0.72 69.4 0 0 23.20 27.71 Q 29.05 19.83 38.68 20.04 C 42.62 20.12 46.13 21.94 45.87 26.29 C 45.72 28.77 43.58 30.86 42.35 32.98 A 2.79 2.78 -51.2 0 0 42.70 36.24 Q 45.77 39.65 49.24 36.44 A 1.31 1.26 73.0 0 0 49.63 35.67 L 50.57 27.51 A 0.79 0.74 -22.0 0 1 50.76 27.10 C 56.88 20.11 62.46 25.99 64.13 32.54 A 1.18 1.16 -85.1 0 0 64.76 33.30 Q 70.51 36.04 73.67 41.52 Q 73.93 41.98 74.40 42.23 C 76.87 43.57 80.03 44.52 79.91 47.91 Q 79.83 50.03 78.23 51.20 C 74.22 54.12 71.89 47.05 68.23 51.25 A 1.00 0.99 62.6 0 0 67.99 52.02 C 68.34 55.27 70.77 54.85 71.70 56.75 Q 72.45 58.26 70.58 59.80 Q 64.76 60.91 63.94 56.03 Q 63.85 55.52 63.36 55.35 Q 56.05 52.77 55.89 45.20 C 55.85 43.35 55.00 41.71 53.00 41.97 C 50.22 42.33 48.67 45.39 46.93 47.41 Q 46.59 47.81 46.08 47.88 C 40.36 48.65 41.98 52.61 43.35 56.74 C 48.52 72.28 24.41 74.71 24.03 61.68 A 1.75 1.75 0.0 0 0 22.29 59.98 Q 19.88 59.98 17.56 58.44 Q 13.11 55.49 10.18 46.89 Q 10.52 30.56 23.61 19.00 Z M 21.92 37.99 A 1.92 1.92 0.0 0 0 20.00 36.07 A 1.92 1.92 0.0 0 0 18.08 37.99 A 1.92 1.92 0.0 0 0 20.00 39.91 A 1.92 1.92 0.0 0 0 21.92 37.99 Z M 37.86 41.98 A 3.87 3.87 0.0 0 0 33.99 38.11 A 3.87 3.87 0.0 0 0 30.12 41.98 A 3.87 3.87 0.0 0 0 33.99 45.85 A 3.87 3.87 0.0 0 0 37.86 41.98 Z M 27.92 47.01 A 2.89 2.89 0.0 0 0 25.03 44.12 A 2.89 2.89 0.0 0 0 22.14 47.01 A 2.89 2.89 0.0 0 0 25.03 49.90 A 2.89 2.89 0.0 0 0 27.92 47.01 Z"/><ellipse fill="#757575" cx="0.00" cy="0.00" transform="translate(75.97,33.04) rotate(62.2)" rx="5.24" ry="3.31"/><circle fill="#838383" cx="20.00" cy="37.99" r="1.92"/><circle fill="#838383" cx="33.99" cy="41.98" r="3.87"/><path fill="#bdbdbd" d=" M 70.58 59.80 Q 75.84 64.85 84.72 57.58 Q 79.14 75.50 63.93 82.40 C 38.00 94.16 9.67 75.13 10.18 46.89 Q 13.11 55.49 17.56 58.44 Q 19.88 59.98 22.29 59.98 A 1.75 1.75 0.0 0 1 24.03 61.68 C 24.41 74.71 48.52 72.28 43.35 56.74 C 41.98 52.61 40.36 48.65 46.08 47.88 Q 46.59 47.81 46.93 47.41 C 48.67 45.39 50.22 42.33 53.00 41.97 C 55.00 41.71 55.85 43.35 55.89 45.20 Q 56.05 52.77 63.36 55.35 Q 63.85 55.52 63.94 56.03 Q 64.76 60.91 70.58 59.80 Z"/><circle fill="#838383" cx="25.03" cy="47.01" r="2.89"/></svg>