<svg xmlns="http://www.w3.org/2000/svg" version="1.1" viewBox="0.00 0.00 180.00 160.00"><path stroke="#fa9326" stroke-width="2.00" fill="none" stroke-linecap="butt" vector-effect="non-scaling-stroke" d="M 100.70 59.99 Q 93.88 59.96 86.48 60.04 C 82.83 60.08 80.59 62.25 77.94 64.40"/><path fill="#fcaf3c" d="M 46.85 0.00 L 54.05 0.00 C 74.19 2.37 89.00 9.58 97.77 28.63 Q 97.99 29.09 98.41 28.82 C 112.26 19.77 130.44 18.09 146.20 22.06 Q 164.57 26.68 174.52 42.72 C 176.83 46.43 184.12 59.97 174.73 60.01 Q 167.23 60.04 159.44 59.98 A 1.07 1.06 74.7 0 1 158.52 59.45 L 152.35 48.93 A 2.74 2.74 0.0 0 0 147.65 48.89 L 141.28 59.32 A 1.42 1.41 15.4 0 1 140.07 60.00 L 100.70 59.99 Q 93.88 59.96 86.48 60.04 C 82.83 60.08 80.59 62.25 77.94 64.40 Q 56.64 85.77 35.37 106.99 C 32.64 109.72 28.88 110.90 26.71 106.97 C 14.39 84.64 23.20 60.93 41.03 44.75 Q 41.49 44.33 41.18 43.80 L 32.27 28.76 A 2.63 2.63 0.0 0 0 27.73 28.77 L 21.96 38.67 A 2.65 2.63 -75.0 0 1 19.70 39.98 Q 12.98 40.02 5.50 40.06 C 0.47 40.09 0.02 36.44 1.11 32.47 C 6.86 11.54 26.56 1.58 46.85 0.00 Z"/><path fill="#f7770f" d="M 100.70 59.99 Q 116.16 105.43 110.77 150.74 Q 109.91 157.92 102.16 160.00 L 78.23 160.00 C 71.62 157.58 69.35 152.25 71.34 145.71 C 78.57 121.99 86.75 88.22 77.94 64.40 C 80.59 62.25 82.83 60.08 86.48 60.04 Q 93.88 59.96 100.70 59.99 Z"/></svg>