<?xml version="1.0" encoding="UTF-8" standalone="no"?><!DOCTYPE svg PUBLIC "-//W3C//DTD SVG 1.1//EN" "http://www.w3.org/Graphics/SVG/1.1/DTD/svg11.dtd"><svg xmlns="http://www.w3.org/2000/svg" version="1.1" viewBox="0.00 0.00 96.00 96.00"><path stroke="#ffc21e" stroke-width="2.00" fill="none" stroke-linecap="butt" vector-effect="non-scaling-stroke" d=" M 69.90 48.00 A 21.91 21.91 0.0 0 0 47.99 26.09 A 21.91 21.91 0.0 0 0 26.08 48.00 A 21.91 21.91 0.0 0 0 47.99 69.91 A 21.91 21.91 0.0 0 0 69.90 48.00"/><path fill="#ff9800" d=" M 47.65 83.57 L 38.30 74.15 A 0.51 0.51 0.0 0 0 37.94 74.00 L 22.51 74.00 A 0.51 0.51 0.0 0 1 22.00 73.49 L 22.00 58.09 A 0.51 0.51 0.0 0 0 21.85 57.73 L 12.46 48.34 A 0.51 0.51 0.0 0 1 12.46 47.62 L 21.85 38.19 A 0.51 0.51 0.0 0 0 22.00 37.83 L 22.00 22.51 A 0.51 0.51 0.0 0 1 22.51 22.00 L 37.90 22.00 A 0.51 0.51 0.0 0 0 38.26 21.85 L 47.70 12.29 A 0.51 0.51 0.0 0 1 48.42 12.28 L 57.95 21.85 A 0.51 0.51 0.0 0 0 58.31 22.00 L 73.49 22.00 A 0.51 0.51 0.0 0 1 74.00 22.51 L 74.00 37.66 A 0.51 0.51 0.0 0 0 74.15 38.02 L 83.75 47.62 A 0.51 0.51 0.0 0 1 83.75 48.34 L 74.15 57.93 A 0.51 0.51 0.0 0 0 74.00 58.29 L 74.00 73.49 A 0.51 0.51 0.0 0 1 73.49 74.00 L 58.28 74.00 A 0.51 0.51 0.0 0 0 57.92 74.15 L 48.37 83.57 A 0.51 0.51 0.0 0 1 47.65 83.57 Z M 69.90 48.00 A 21.91 21.91 0.0 0 0 47.99 26.09 A 21.91 21.91 0.0 0 0 26.08 48.00 A 21.91 21.91 0.0 0 0 47.99 69.91 A 21.91 21.91 0.0 0 0 69.90 48.00 Z"/><circle fill="#ffeb3b" cx="47.99" cy="48.00" r="21.91"/></svg>